<?xml version="1.0" standalone="no"?>
<!DOCTYPE svg PUBLIC "-//W3C//DTD SVG 20010904//EN"
 "http://www.w3.org/TR/2001/REC-SVG-20010904/DTD/svg10.dtd">
<svg version="1.0" xmlns="http://www.w3.org/2000/svg"
 width="1200.000000pt" height="1200.000000pt" viewBox="0 0 1200.000000 1200.000000"
 preserveAspectRatio="xMidYMid meet">
<metadata>
Created by potrace 1.14, written by Peter Selinger 2001-2017
</metadata>
<g transform="translate(0.000000,1200.000000) scale(0.100000,-0.100000)"
fill="#000000" stroke="none">
<path d="M0 6000 l0 -6000 6000 0 6000 0 0 6000 0 6000 -6000 0 -6000 0 0
-6000z m5281 3864 c30 -9 166 -72 303 -141 267 -133 323 -153 426 -153 96 0
149 19 400 144 302 152 340 166 432 166 139 -1 251 -45 342 -136 57 -57 75
-81 176 -234 155 -234 346 -632 436 -910 21 -63 41 -127 46 -141 8 -22 18 -28
56 -34 171 -25 497 -110 632 -165 202 -83 335 -172 367 -247 21 -52 16 -104
-16 -154 -72 -114 -317 -240 -618 -319 -62 -16 -137 -36 -165 -44 -29 -8 -77
-18 -105 -21 l-53 -7 0 -53 c0 -80 -28 -289 -52 -385 -38 -151 -169 -470 -216
-523 -8 -9 -12 -20 -9 -24 4 -3 222 -7 485 -7 470 -1 478 -1 518 -23 49 -26
111 -92 121 -130 19 -67 9 -155 -29 -248 -42 -103 -97 -244 -194 -495 -37 -96
-81 -209 -97 -250 -44 -112 -42 -128 18 -167 107 -69 162 -111 255 -200 316
-300 533 -683 609 -1073 37 -187 41 -268 41 -740 0 -440 -1 -469 -21 -540 -28
-103 -71 -179 -147 -261 -95 -102 -183 -158 -320 -202 l-67 -22 -2800 -3
c-3052 -3 -2864 -6 -3013 52 -173 68 -317 230 -380 426 l-27 85 0 495 0 495
28 150 c79 427 298 828 622 1136 79 76 243 202 295 229 19 10 43 27 54 39 18
20 18 22 -13 86 -17 36 -31 71 -31 76 0 6 -7 23 -15 37 -16 31 -225 526 -225
536 0 3 -25 64 -55 135 -30 71 -55 142 -55 158 1 37 35 111 68 146 15 16 45
39 67 50 39 22 48 22 508 22 534 0 491 -10 433 97 -19 35 -55 113 -79 173 -84
208 -122 363 -138 559 -7 78 -16 147 -22 154 -5 6 -19 12 -30 12 -35 0 -329
78 -454 120 -361 123 -527 277 -457 425 71 150 441 308 934 400 104 20 130 37
130 85 0 16 7 36 16 45 9 9 14 18 11 22 -5 5 38 130 68 198 7 16 25 62 40 100
55 143 198 426 288 569 7 11 32 52 56 90 65 105 146 206 204 254 45 37 139 81
202 95 47 11 165 6 216 -9z"/>
<path d="M4539 7383 c-1 -5 0 -42 0 -83 l2 -75 45 -39 c24 -21 44 -46 44 -56
0 -10 7 -23 15 -30 8 -7 29 -58 46 -114 37 -117 94 -237 151 -314 46 -62 128
-118 231 -159 67 -26 82 -28 207 -28 117 1 143 4 193 24 170 67 301 218 378
434 42 115 66 137 154 137 61 0 64 -1 99 -40 20 -22 36 -48 36 -58 0 -28 77
-180 125 -247 64 -90 154 -168 242 -212 l77 -38 135 0 c113 0 148 4 206 22
189 59 302 192 391 458 50 150 70 190 112 223 36 30 37 32 38 102 1 49 6 75
15 81 31 19 -7 21 -118 6 -181 -25 -405 -46 -657 -62 -267 -17 -1050 -20
-1306 -5 -256 15 -645 49 -747 65 -107 17 -113 18 -114 8z"/>
<path d="M7229 5434 c-160 -101 -329 -209 -442 -282 -45 -29 -104 -65 -130
-79 -52 -29 -37 -6 -260 -384 -64 -108 -123 -201 -131 -208 -30 -25 -30 -75 2
-183 29 -98 66 -233 117 -433 13 -49 34 -130 48 -180 14 -49 42 -153 62 -230
36 -139 136 -511 180 -675 13 -47 27 -102 30 -123 4 -20 12 -40 18 -44 16 -10
47 39 47 77 0 19 5 51 10 70 6 19 22 91 36 160 28 141 87 414 175 820 32 151
66 309 75 350 9 41 25 111 35 155 17 75 71 324 154 703 87 403 107 486 115
503 12 22 13 56 1 63 -4 3 -68 -33 -142 -80z"/>
<path d="M4642 5494 c-5 -10 -2 -41 8 -82 20 -79 40 -164 75 -327 30 -142 63
-290 104 -475 17 -74 39 -178 51 -230 44 -206 111 -515 155 -715 25 -115 64
-293 85 -395 22 -102 55 -257 75 -345 19 -88 35 -170 35 -182 0 -29 39 -133
49 -133 5 0 15 26 23 58 9 31 26 91 38 132 12 41 41 149 65 240 82 317 217
827 282 1065 94 344 89 319 67 351 -10 14 -37 57 -59 94 -76 128 -129 215
-180 300 -29 47 -64 106 -79 133 -15 26 -37 53 -49 61 -12 7 -71 45 -132 83
-60 39 -195 125 -300 191 -104 66 -208 133 -230 149 -55 39 -73 45 -83 27z"/>
</g>
</svg>
