<?xml version="1.0" encoding="UTF-8"?>
<!DOCTYPE svg PUBLIC "-//W3C//DTD SVG 1.1//EN" "http://www.w3.org/Graphics/SVG/1.1/DTD/svg11.dtd">
<svg xmlns="http://www.w3.org/2000/svg" version="1.1" width="95px" height="103px" style="shape-rendering:geometricPrecision; text-rendering:geometricPrecision; image-rendering:optimizeQuality; fill-rule:evenodd; clip-rule:evenodd" xmlns:xlink="http://www.w3.org/1999/xlink">
<g><path style="opacity:1" fill="#fffef8" d="M -0.5,-0.5 C 10.8333,-0.5 22.1667,-0.5 33.5,-0.5C 33.5,7.16667 33.5,14.8333 33.5,22.5C 37.5,22.5 41.5,22.5 45.5,22.5C 45.5,18.5 45.5,14.5 45.5,10.5C 49.1667,10.5 52.8333,10.5 56.5,10.5C 56.5,6.83333 56.5,3.16667 56.5,-0.5C 67.8333,-0.5 79.1667,-0.5 90.5,-0.5C 90.5,10.8333 90.5,22.1667 90.5,33.5C 86.6286,33.185 82.9619,33.5184 79.5,34.5C 79.5,38.1667 79.5,41.8333 79.5,45.5C 75.8333,45.5 72.1667,45.5 68.5,45.5C 68.5,49.1667 68.5,52.8333 68.5,56.5C 72.1667,56.5 75.8333,56.5 79.5,56.5C 79.5,60.1667 79.5,63.8333 79.5,67.5C 82.9619,68.4816 86.6286,68.815 90.5,68.5C 90.5,79.8333 90.5,91.1667 90.5,102.5C 79.1667,102.5 67.8333,102.5 56.5,102.5C 56.5,98.8333 56.5,95.1667 56.5,91.5C 52.8333,91.5 49.1667,91.5 45.5,91.5C 45.5,87.5 45.5,83.5 45.5,79.5C 41.5,79.5 37.5,79.5 33.5,79.5C 33.5,87.1667 33.5,94.8333 33.5,102.5C 22.1667,102.5 10.8333,102.5 -0.5,102.5C -0.5,68.1667 -0.5,33.8333 -0.5,-0.5 Z"/></g>
<g><path style="opacity:0.459" fill="#fffea5" d="M 90.5,-0.5 C 90.8333,-0.5 91.1667,-0.5 91.5,-0.5C 91.5,11.1667 91.5,22.8333 91.5,34.5C 87.5,34.5 83.5,34.5 79.5,34.5C 82.9619,33.5184 86.6286,33.185 90.5,33.5C 90.5,22.1667 90.5,10.8333 90.5,-0.5 Z"/></g>
<g><path style="opacity:0.051" fill="#fffe77" d="M 33.5,-0.5 C 33.8333,-0.5 34.1667,-0.5 34.5,-0.5C 34.5,6.83333 34.5,14.1667 34.5,21.5C 37.8333,21.5 41.1667,21.5 44.5,21.5C 44.185,17.6286 44.5184,13.9619 45.5,10.5C 45.5,14.5 45.5,18.5 45.5,22.5C 41.5,22.5 37.5,22.5 33.5,22.5C 33.5,14.8333 33.5,7.16667 33.5,-0.5 Z"/></g>
<g><path style="opacity:0.459" fill="#fffea5" d="M 79.5,67.5 C 83.5,67.5 87.5,67.5 91.5,67.5C 91.5,79.1667 91.5,90.8333 91.5,102.5C 91.1667,102.5 90.8333,102.5 90.5,102.5C 90.5,91.1667 90.5,79.8333 90.5,68.5C 86.6286,68.815 82.9619,68.4816 79.5,67.5 Z"/></g>
<g><path style="opacity:0.235" fill="#fffe7e" d="M 45.5,91.5 C 44.5184,88.0381 44.185,84.3714 44.5,80.5C 41.1667,80.5 37.8333,80.5 34.5,80.5C 34.5,87.8333 34.5,95.1667 34.5,102.5C 34.1667,102.5 33.8333,102.5 33.5,102.5C 33.5,94.8333 33.5,87.1667 33.5,79.5C 37.5,79.5 41.5,79.5 45.5,79.5C 45.5,83.5 45.5,87.5 45.5,91.5 Z"/></g>
</svg>
